<svg width="20" height="20" viewBox="0 0 20 20" fill="none" xmlns="http://www.w3.org/2000/svg">
<path d="M9.9974 1.66675C7.81406 1.66675 6.03906 3.44175 6.03906 5.62508C6.03906 7.76675 7.71406 9.50008 9.8974 9.57508C9.96406 9.56675 10.0307 9.56675 10.0807 9.57508C10.0974 9.57508 10.1057 9.57508 10.1224 9.57508C10.1307 9.57508 10.1307 9.57508 10.1391 9.57508C12.2724 9.50008 13.9474 7.76675 13.9557 5.62508C13.9557 3.44175 12.1807 1.66675 9.9974 1.66675Z" fill="#596579"/>
<path d="M14.2328 11.7917C11.9078 10.2417 8.11615 10.2417 5.77448 11.7917C4.71615 12.5 4.13281 13.4583 4.13281 14.4833C4.13281 15.5083 4.71615 16.4583 5.76615 17.1583C6.93281 17.9417 8.46615 18.3333 9.99948 18.3333C11.5328 18.3333 13.0661 17.9417 14.2328 17.1583C15.2828 16.45 15.8661 15.5 15.8661 14.4667C15.8578 13.4417 15.2828 12.4917 14.2328 11.7917Z" fill="#596579"/>
</svg>
